<svg height="100" width="100" xmlns="http://www.w3.org/2000/svg" viewBox="0 0 200 200"><title>Asset X</title><g id="Layer_2" data-name="Layer 2" transform="translate(100 0)"><g id="Layer_1-2" data-name="Layer 1"><path d="M66.05,37.89l-.83-1.1L62.47,35,60.2,33.45s-.77-1.06-1.57-1l-1.87-1.17L50.86,27l-5.73-4.27-3.2-2.12c2.06-1.13,4.41-2.48,5.24-3,1.43-.89,7.76-5.12,8.67-6.14A27.16,27.16,0,0,1,58,9.34a10.43,10.43,0,0,1,1.63-2.53c.85-.83,1.77-.34.12-2.51S58.61.91,56.49,1.17s-3-.13-4.82,1.31-8.58,6.08-8.58,6.08-5.9,3.5-7,4.37c-.35.26-1.27.85-2.41,1.56l-.22-.16-5.13-3.41-10-6.68c-1.46-1-3.87-2.5-4.82-2.58S9.81.11,8.27.49L8.13,0,6.73.86s-2.5.91-2.86,1.68a6.23,6.23,0,0,0-.33,1.8c-.13.53-1.72,1-.78,2s1,1.91,2.59,2.19a6.39,6.39,0,0,1,2.2.68l1.91.88L12,11.56,17.74,15l4.79,3.11,2.38,1.58,0,0c-2.11,1.1-5.6,2.85-8,4.25C13.74,25.84,6.3,29.57,4.86,31.44S1.53,34.17,1,36.49s-2,4.32.25,6.55,5-.05,7.18-.95S13.7,40,13.7,40s2.42-1.5,3.09-3.13-.41-1.88-.06-2.55,5.31-3,5.31-3,9-5,9.88-5.36c.24-.11.75-.4,1.4-.77l2.38,1.59,2.21,1.62,1.12.9,1.08.72,1.12,1.37,1.46,1,1.57,1,1.89,1.49L48,36.09l.65.9L52.2,39.5l1.51,1,.77.59,1.07,1.09,1.84,1.22.93.94,1,0,1.44.18,1.69-.9,1.64-.94s2.14-.76,2.1-2.34S66.05,37.89,66.05,37.89Z"/></g></g></svg>
