<svg height="70" width="100" xmlns="http://www.w3.org/2000/svg" viewBox="0 0 70 100"><title>Asset 2</title><g id="Layer_2" data-name="Layer 2"><g id="Layer_1-2" data-name="Layer 1"><path d="M16.08,27.2s-.54.84-2-.66c0,0-1.26-1.74-1.62-2.16-.36-.6-1.8-3.18-1.8-3.18l-1.62-3L7.69,15.57,5.17,16.95,3.19,18a1.78,1.78,0,0,1-1.74.18c-.78-.48-.48-.54-.48-.54s-.36-.84-.54-.84a.43.43,0,0,1-.36-.66c.24-.42.24-.78,1-1.2a12.76,12.76,0,0,0,2-1.32l1-.48A10.61,10.61,0,0,1,6.43,12,9.9,9.9,0,0,1,5.17,9c-.06-1.26-.3-4.08,1.62-6.18a7.63,7.63,0,0,1,5-2.4c3.3-.48,4.68-.66,7.26.24S22.5,2.08,22.8,3s.42,1.5,0,2.16l.29.42-.53.12v.48S21.84,5.07,21.3,5a1.27,1.27,0,0,1-1-1.14C19,3.7,16.2,2.8,14.82,3.16s-4.56,1-5.46,2.58c-.78,1.74-1.26,3.36-.48,5,1.92-.66,4.56-1.62,4.56-1.62l2-1S16,7.77,16.2,8c.72.24,1-.06,1.38.3s1.38,1.8.48,2.52a19.53,19.53,0,0,1-2.64,1.68l-3.6,1.27-1.5.53,1.22,2.58,1.66,3.3,1.62,2.7,1,1.44S17,26.48,16.08,27.2Z"/><path d="M31.73,17.43c-.42-.78-.3-2-.42-3.24-.06-1,.12-3.24,0-5A8.21,8.21,0,0,0,30.77,6a1.05,1.05,0,0,0-1.2-.72H28.8l-.54.3-.3.36-.12,1,.42,3.18v7.38c-.12.24-.36.12-1.38-.06a16.9,16.9,0,0,1-2.34-1c.66-.18,1.2-.66,2.28-1.8,1-.9.72-2.82-.66-5.1s-5.88-1.44-5.88-1.44L20,7.53h-.54l-.36.36-.3-.36-.3.72-.42,3.12-.36,2.76-.36,4.68L17,21.57l.42.48.48.36.42.48c.42.6.54.48,1,.72a1.89,1.89,0,0,0,.66,0c.66-.3.6-1.32.84-1.86s-.18-1.38-.36-2.28a8.48,8.48,0,0,1,.24-2.64s2.28,1.5,4,2.82,3.48.84,4.44,1c.48-.42.78-.6,1.32-.18s1-.12,1.26-1A2.42,2.42,0,0,0,31.73,17.43Zm-7.48-4.88a3.59,3.59,0,0,1-3.38,1.25L21,11.91l.05-.65s2.3-.54,2.93-.2C24.85,11.5,25,11.51,24.26,12.54Z"/><path d="M37,21.66a.61.61,0,0,1-.84.36,1.51,1.51,0,0,1-1.24-.72,1.15,1.15,0,0,1-.6-.44s-.4.56-.48,0c-.24-.56-.64-.68-.56-1.48-.12-1.24-.4-4.44-.4-4.44V12.43a3.39,3.39,0,0,1-.6-.28c0-.36-.16-.56.2-.88a9.64,9.64,0,0,0,0-2.16l0-1.44s-.63-.8-.32-1.2a3.5,3.5,0,0,0,.48-.72s-.12-.42.44-.51c.8-.17,1.8-.85,3.12-.61,1.68,0,2.28-.05,2.28-.05a2.55,2.55,0,0,1,1.08.49c.64.4,1.08.4,1,1.32.08,1,.44,1-.4,1.16a13.17,13.17,0,0,1-2.56.32A9.14,9.14,0,0,0,36,8.15a10.17,10.17,0,0,1,0,1.92c1.08.12,3.16-.08,3.44.32.56.56,1,.2,1,.68s.44,1.68-.32,1.88a13.59,13.59,0,0,1-3.88.38,7.68,7.68,0,0,0-.08,1.9l0,1.88.08.64A12.19,12.19,0,0,0,37.6,17c.6-.32,2.2-1.56,2.64-1.08s.28.16.52.56c.48.48.76.64.72,1-.2.44-.44.84-.44.84l.16.32-.4.56-.6.56-.48.32A10.76,10.76,0,0,1,37,21.66Z"/><path d="M44.84,17.13a1.1,1.1,0,0,1-1.16,1c-1.16-.11-1.44-.33-1.72-.72l-.39-.22v-2.1a30.22,30.22,0,0,1,0-4.54c.28-1.61-.06-3.21.83-3.93,1-.44,1.27-.89,1.94,0a10,10,0,0,1,2,3.21c.61,1.33,1.94,4,2.71,4.32a2.51,2.51,0,0,0,0-2,28.75,28.75,0,0,1-.61-3.29l.33-.44.47-.44h.91a1.66,1.66,0,0,1,1.22,1.11A12.28,12.28,0,0,1,52,11a5.13,5.13,0,0,1,.77,2.93c.22,2.1.39,5.2-.72,5.15-1.27.06-1.33.28-1.77,0a13.19,13.19,0,0,1-2.38-2.33C47.11,15.69,45,13.2,45,13.2S45,16.7,44.84,17.13Z"/><path d="M61.38,9c-.9-1.56-4.05-2.24-5-2.72A3.27,3.27,0,0,0,55,4.81c-.72-.3-1.06.36-1.3,1-.16.47-.38,3.35-.38,3.35s.28,3.26.35,5.48a28.84,28.84,0,0,0,.7,5.25l.93.81s.68.62,1,.38.38,0,1.26-.13,3-1.22,4.6-2.66,1.57-2.89,1.81-4.58C64.24,12.28,63,11.1,61.38,9Zm-2,6.61A7.21,7.21,0,0,1,57,17.47,48.64,48.64,0,0,1,56.41,12l.32-2.82s2.67,1.16,3.09,2.18C60.43,12.64,60.92,13.5,59.34,15.59Z"/><path d="M72.57,8.07s1.32-.48.9-1.31c-.6-1-1.32-2.28-2.4-2.28-1.08.3-.9-.18-1.86.78a47.88,47.88,0,0,1-4,2.81s-1.92.72-1.38,2.22,1.2,3.61,2.82,4.17c1.8,1,4.5,2.72,6.12,3.08,1.92.54,4.38,1.68,3,3.72S74.25,23.55,71,25s-7.14,3.72-9.23,2c-2-2-2-3.12-2.88-3.06s-2.34-.48-2.58-.18-1-.84-.72.06.18.66,1,1.92c1,1.38,3.54,4.5,4.62,4.56a11.05,11.05,0,0,0,7.08,0,44.35,44.35,0,0,0,8.64-4.26c1.62-1.2,3.78-2.76,3.54-4.68s.12-3-1.92-4.5-3.42-1.67-5.4-2.48c-2-1.05-4.74-1.47-4.8-3.15.12-1.62.36-.9,1.44-1.5A21.37,21.37,0,0,0,72.57,8.07Z"/></g></g></svg>
