<svg height="70" width="80" xmlns="http://www.w3.org/2000/svg" viewBox="0 0 70 280"><title>Asset 5</title><g id="Layer_2" data-name="Layer 2"><g id="Layer_1-2" data-name="Layer 1"><path d="M29.35,8.86s2.08-1,.92-3.69S29.47,2.4,28.2,1.59,25.89-.95,23.12.67s-6.69,3.92-7.39,4.5a29.35,29.35,0,0,0-4.39,3.69A43.46,43.46,0,0,0,8,13c-.58.92-4.39,5.19-6.12,9.12s-2.54,7.39-1.27,11a23.91,23.91,0,0,0,6.46,9.58c2.77,2.42,4.27,4.15,9.12,5.89s9.81,3.35,15,2.77,10.5-.81,16.16-7.15,6.23-7.39,6.23-7.39,2-1.85,2-2.77,0-4.15-.81-5.19-.35-2.74-3.35-3.1-9.58-.82-12.92-.94S27.74,24.44,26.7,24s-2.08,0-3,1.15a17.9,17.9,0,0,1-2.19,2.42c-.23.12,1.5,1.62,2,2s2.65,2.77,2.65,2.77.46,1.27,3.12,1.62,5.89.58,5.89.58,6.46.58,7.62.46S41,37.59,40,38.4s-5.31,5.08-11,4.15S17.7,40.82,13.89,38.4s-7-3.46-6-6.58S10.43,24,13.31,21.21s4.5-5.31,7.27-7S28.27,10.08,29.35,8.86Z"/><path d="M63.16,9.09A9.29,9.29,0,0,1,62,6.67c-.23-1,.58-1.5-1.85-1.27s-3.12-.69-3.92,1S54.74,8.63,55,10.71s.58,9.35.58,9.35-.12,6.11,0,7.38,0,8.77,0,9.92-.55,6.35-.62,9.69-.74,10.73,0,12.69.51,3.81,2,5.31,2.31,3.58,5.08,2.88,2.31-3.81,2.65-5.89.92-5,.92-5a8,8,0,0,0-.92-3.81c-.92-1.27-1.62-.58-2-1.15s.23-5.42.23-5.42.46-9.15.58-10,.12-5.69.35-6.85.46-7.15.46-8.65a81.67,81.67,0,0,0-.58-9.45A24.2,24.2,0,0,1,63.16,9.09Z"/><path d="M72.74,24.9V20.06s.46-2.66,0-3.35-.58-1.38-1.27-1.73a21.61,21.61,0,0,1-3.92-3.69c-1.15-1.38-2.42-2.54-.81-3.81s1.62-2,3.35-3S70.73.9,72.95.55s3.72-.81,4.53,1.15,1.73,2.88,1.85,3.63,4,.87,7.85.64,9.69-.23,12.12-.64,4.62-.63,4.62-.63,1.15-1.15,2-.58.81-.23,1.5-.12,1.73-1.38,2.88-.12,1.73,1.5,1.62,2.65.12,2.54-.58,3.58-1.62,2.58-2.54,2.44-4.73,1.37-6.35,1.14a14.11,14.11,0,0,0-3.35,0l-6.92,1-4,.35a1.56,1.56,0,0,1-1.4.81c-1,0-3.56-.23-3.56-.23l-2,.23a11.24,11.24,0,0,0-.35,3.58c.12,2.08.12,4.85.12,4.85s-.35.46,1.27.58a22.37,22.37,0,0,0,5,0c3.23-.23,5.54-.46,10.39-1.15s6.35-.58,7.85-1.38,2.08-.58,2.88-1.38,1.27-3,2.77-2.42.46-1.62,1.5-.23,2,.35,1.85,3.58-.81,6.92-3.58,7.85-7.27,2.77-10,3-7.15,1.38-9.23,1.5-4.85,0-7,.58a5.53,5.53,0,0,1-3.46,0s.12,5.65.23,7.39,0,4,0,4-.12,1.5,1.15,1.73,1.38,2.52,1.38,2.52.81.14.46,2.68-.81,5.54-.46,7.15.46,5.31-2.19,4.62-2.88-.81-4.27-2.08-2.31-1.62-2.31-3.35-1-5.42-1-8.07-.35-6.7-.35-6.7-.23-6.81-.23-7.39.12-2.19.12-2.19-3.81-.23-4.73-.92A25.45,25.45,0,0,1,66,31.36c-.73-.81-1.43-.69-1.31-1.85a4.45,4.45,0,0,1,.92-2.88c.92-1.38.92-2.31,2.54-2.19S72.74,24.9,72.74,24.9Z"/><path d="M125.71,37.59s1.38-.58,1.5-1.15-.12-.35,0-.92,1.38-.58.69-1.27.76-1.15.21-1.61-.33-.81-1.13-1.5-.8-1.38-1.84-1.27-4.27.33-6,.58a17.94,17.94,0,0,0-5.19.81c-2.19.81-3.35.7-5,2a7.37,7.37,0,0,0-2.08,2.08c-.92,1.38-2.42,2.77-.92,4.73s.58,2.08,3.35,3.69a35,35,0,0,0,6.46,3c2.42.92,5.31,2.19,3.35,3.12s-3,2.54-4.72,2.19-4-.74-5-1.52S106.9,48,107.25,49s-2.31-2-2.77.46-1.85,2.65,0,5,1.73,3.81,3.92,4.62,5.19,3.12,8.77,2.31,9-1.62,10.27-4.62a11.75,11.75,0,0,0-.12-9.46c-1.38-3.58-2.65-4.39-4.27-5.42s-4.73-3.12-4.73-3.12l4.15-.69A7.39,7.39,0,0,0,125.71,37.59Z"/></g></g></svg>
