<svg height="70" width="100" xmlns="http://www.w3.org/2000/svg" viewBox="0 0 70 280"><title>Asset 2</title><g id="Layer_2" data-name="Layer 2"><g id="Layer_1-2" data-name="Layer 1"><path d="M33.23,22.89c-.13-1.63-4.58-4.33-5.39-4.83a51.66,51.66,0,0,0-9.59-3.51,29,29,0,0,0-7.09-.25H5.77A43,43,0,0,0,1.5,15,2.63,2.63,0,0,0,0,16.49V19c0,.44,1.5.88,1.5.88.75,1,.82.94.82.94s.63.06,1.25.06a1.33,1.33,0,0,0,1-.56v1.82c0,.94.44,9.28.44,9.28l.38,2.28L5,33.86c-1-.38-1.32,0-1.32,0-1.5.82-1.19,1.63-1.19,1.63-.56.25-.69,1.13-.69,1.13C1.82,38.75,4.58,40,4.58,40L6.4,40s.38-.19-.25.56.63,1.88.63,1.88v2.38l.5,2.88V53.3l.63,6.52.31,10.85-.59.69v.94l.08,1.07a22.9,22.9,0,0,0,0,3.83c.19,1.76,1.38,1.94,1.76,1.73.38,1.61.75,1.15,1.5,1.34a14.22,14.22,0,0,0,2.88,0v-.94c1.69-.5.88-1.82.88-1.82l-.31-4.33-.94-12.79-.25-2.88-1.32-13-.44-5A83.51,83.51,0,0,0,19.56,37c2.26-.82,7.34-4.08,10.28-6.58A9.46,9.46,0,0,0,33.23,22.89ZM25,25.71a8.56,8.56,0,0,1-3.51,3.14,38.63,38.63,0,0,1-5.83,2.88c-2.13.82-4.7,1.63-4.7,1.63L10.41,30V28.41L10.1,26l-.31-4.77V19.88s7.15-.25,8.9.44c2.76,1,6.21,2.57,6.77,2.88a4.68,4.68,0,0,1,.94.69A6.19,6.19,0,0,1,25,25.71Z"/><path d="M39,6.65s-.44-3.26-2.32-4c0,0-3.07-1.13-3.83,0-.38,1.25-1.22,1.13.39,6.21.61,4.7.74,7.46.74,7.46l.25,8.47s.13,9.16.38,11.54,1,6.71,1,6.71.28,5.14.28,5.83a25.65,25.65,0,0,0,2.57,2h1.13a2.7,2.7,0,0,0,2.88-2.32c1.13-2.32,2.95-7.34,2.95-7.34l.63-2.45L47,36.62l2.07-4.14s1.07-2.07,2-1.69a6.08,6.08,0,0,1,1.5,1.69L54,34.86l.82,2,.75,2,.5,1.88.69,1,.82,2.45,1.38,3.06.5,1L61,48s.31.94,1.07.88c1.19-.25,3.64-.88,4.33-6.08,0,0,1.19-3.2,0-4.08,0,0-1.07-2.57-3.07-1.44l-1.19,1.38L59.88,34l-1.69-3.45L57,28.78l-1.82-2.29S53,23.82,50.27,24.38c0,0-3.9-.25-5.87,3a49.63,49.63,0,0,0-3.64,7.84l-.31-3-.31-8.47-.38-8.4-.19-3.89S39.26,7.77,39,6.65Z"/><path d="M84.9,27.68a12.77,12.77,0,0,0-1.25-1.19l-1.5-1-1.32-.69V23.14l-.41-.22-.16-.38V22.1a5.51,5.51,0,0,0-1.72-2,12.21,12.21,0,0,0-2.73-1.72,8.14,8.14,0,0,0-5-1,10.29,10.29,0,0,0-5.55,3.7A14,14,0,0,0,63,28.59l.09,2.7S62.57,31,63,32a2.35,2.35,0,0,1,.22,1.54l.56,3.27s1.91,3.31,4.17,4.13a7.28,7.28,0,0,0,5,1.69c3-.19,5.89-2.73,5.89-2.73l1.44-1.29.53-.88.72-.75.25-.69,1.32-1.6.5-1,.31-.72.41-.91a9.54,9.54,0,0,0,.56-2.32C84.93,28.91,85.12,28,84.9,27.68ZM74,35.84c-1.07.09-.78.38-1.54.91-1.16.38-1.5-.38-2.26-.75s-.82-1.82-.82-1.82a31,31,0,0,1,0-4.42,6.66,6.66,0,0,1,1-3.76,6.13,6.13,0,0,1,2.38-2.38c1.32-.16,1.32.69,1.47,1.94a2.63,2.63,0,0,1-.88,2.13L73,28.5l-.47.78-.6.38h-.56l-.13.66-.56.66-.38.66.28.78.25.56.41.72.5.63h.6v.19l.34.53,1.76.31A.38.38,0,0,1,74,35.84Z"/><path d="M86.85,20.94v-2.7l-.31-.56V15.24l.16-.5-.16-.88V1.44l.88-.82H88V0h1.44L90,.38h.5l.94.63.69.44.41.44v.47l.25.22V9.66l.16.82v8.25s-.13,1.16.34,1,1.41-.38,1.41-.38L96.22,19l.72-.22,1.1-.5.91-.13.56-.13,1.25-.5,1.13-.3,3-1.2s.28-.13.94-.38.69-.63.94-.63a7.14,7.14,0,0,0,1.29-.47l1-.34a2.57,2.57,0,0,1,1.79-.09,3.37,3.37,0,0,0,1.19.34l.56.31s.5-.13.69.16a7.14,7.14,0,0,1,.44.88s.5,0,.44.78a17.37,17.37,0,0,1-.25,1.76,7,7,0,0,1-2.73,2,15.06,15.06,0,0,1-2.41.94l-.47.31-.75.25H107l-.41.38-.5.25h-.6l-.56.38-.94.28h-.78l-.94.38-1.76.53-2.16.72-1.66.38-1.25.44-1.38.28s-1,.22-1,1.07.16,2.16.16,2.16l.09,2.7.16,1.66.28,2.79.42,3.39.57,3.11.26,1.4a6.91,6.91,0,0,0,.22,1.76.83.83,0,0,0,1.16-.63,3.39,3.39,0,0,1,.88-1.57s.94-.94,1.47-.94,1.63.09,1.85.6a4.86,4.86,0,0,1-.2,2.88,15.45,15.45,0,0,1-1.21,3.35c-.6.88-2.54,4.64-4,4.67s-1.44,0-2.13-.69a4.3,4.3,0,0,1-1.41-.47c-.66-.38-1.07-.47-1.32-1.19s-.66-2.63-.66-2.63-1-4.3-1-4.61-.25-2-.25-2l-.25-2s-.53-2.79-.56-3.51-.34-2.79-.34-2.79l-.19-3.67,0-2.76,0-.38s-.25-.41-1.1,0a12.28,12.28,0,0,1-1.57.63l-5.08-3.73.72-1.25,1.07-.5,1.5-.5a9.09,9.09,0,0,1,1.79-.44C85,21.76,86.85,21.7,86.85,20.94Z"/><path d="M129.64,24.53c-.47-2.26-1-4.14-2.26-4.89s-3.39-2.4-3.76-2.12a3.55,3.55,0,0,0-1.27-.47,1.77,1.77,0,0,1-.85-.24h-1.6a9.69,9.69,0,0,0-4,.71,12.8,12.8,0,0,1-2.49.94s-4.61,2.83-5.55,4.36c0,0-1.18,1.62-1.79,2.65a9,9,0,0,0-1,2.07c-.28.8-.29.61-.66,1.55a10.19,10.19,0,0,0-.71,3.67,9.34,9.34,0,0,0,.71,4.28c.66,1.36,1.88,3.48,3.06,3.9L108.86,42l2.26.8a11,11,0,0,0,4.23,0,16.5,16.5,0,0,0,5.55-2.21l1.46-1.22a26.38,26.38,0,0,0,2.16-3,17.94,17.94,0,0,0,1.69-1.83,27.28,27.28,0,0,0,2.54-4.41C129.36,28.53,130.11,26.79,129.64,24.53Zm-6.58,1.41a5.37,5.37,0,0,1-1.6,3.34s-.89,1.41-2.12,3a2.38,2.38,0,0,0,.33,3.1c0,.56-1.08.52-3.34,1.18-2.59,1.65-3.39.8-5,.42s-.94-3.34-.94-3.34l.38-2.21a20.78,20.78,0,0,1,5.36-7,16.38,16.38,0,0,1,3-1.66,5.17,5.17,0,0,0,2.4,0C123.51,22.57,123,24.2,123.06,25.94Z"/><path d="M158.14,6.52s.82-.82,0-2.38l.36-.25h-.8S156.26,2,154.76,1.94a6.91,6.91,0,0,0-4.64,1.19l-3.39,2.38-.88.63-.44.38-1.57,1.13-.44.56-.63.38-2,2.19-.94.31-.38.63-2.13,2.19-1.63,1.63-1.38,1.26-.94,1.62s-1.9,2.12-1.44,4.33c.31,1.5.41,3.21,2.76,4.2,2.82,1.19,6.58,2.38,6.58,2.38s4.87,1.31,5.71,1.57c1.82.56,3.83,1.32,3.83,1.32s3.23,1.37,3.83,1.69c2.57,1.38,4.83,2.63,4.83,2.63s2.33,1.53,2.13,2.19c-.31,1.07-1.13,3.07-1.63,3.26s-.69,0-.69,0l-1.07.63a15,15,0,0,1-2.95.5,38.68,38.68,0,0,1-5.77-.82,7.74,7.74,0,0,1-1.57-.44l-.31.06-1.32-.31-.75.13-.44.75s-1.55,1-1.07,1.5c.63.69.72,1.32,1.69,1.85a7.63,7.63,0,0,1,1.32.85h.56l.31.6s1.91.69,3.23,1,5.14,1.69,8.62.63,6.77-2.85,8.06-5.64a5.77,5.77,0,0,0,.41-5.83s-1.29-3.32-6.8-6.15l-2.1-1.19L158,29.66l-2.16-1.07-2.57-1.1L151.68,27l-2.51-1s-2.57-.72-3.54-.94-3.26-.78-3.26-.78l-2-.38-.22-.5-1-.38s-.6-.76.47-1.63l.53-.6,2.79-3.42s6-5.31,6.62-5.74c1.19-.88,4.84-3.7,5.27-3.79C155.79,7.56,157.78,7.53,158.14,6.52Z"/></g></g></svg>
