<svg height="100" width="100" xmlns="http://www.w3.org/2000/svg" viewBox="0 0 85 280"><title>Asset 4</title><g id="Layer_2" data-name="Layer 2"><g id="Layer_1-2" data-name="Layer 1"><path d="M31.08,16.37l-.94-.94H27.88l-2.26.94-3.2,1.69-2.82,1.5-4,1.41-4.7,1.79L7.56,24.17S1.35,26,1.07,31.42c0,0-1,4.33,5.17,8.37s8,5,8,5l2.92,1.6,2.45,1.41,1.32,1.13s2.45,1,2.35,3.1c0,0-2.16,2.73-4.89,2.92S9.91,56.06,7,54.93L5.4,53.52l.19-.66H3.14S1,52.2.6,53.61s-1.43,4.22.66,5.64c2.35,1.6,5.08,4.14,16,3.2,0,0,11.48-1.13,13.26-6,0,0,1.41-5.74-1.41-8.75a36.36,36.36,0,0,0-5.83-5l-3.76-2.63-5-2.26-3.2-2.35-1.79-.85s-1.6-1.41-.38-2.45,6.38-3.29,6.38-3.29l8.86-3.2,2.45-1,2.16-1,1.22-.38.85-.47,1.6-.85V18.15l-.47-.85Z"/><path d="M88.54,32.73C87,30.1,85.72,26.9,82.43,25.4c0,0-4-3.57-6.87-1.32,0,0-3.2,1.6-4.33,4.33a13.5,13.5,0,0,0-1.79,8.18s.09,5,1.13,6.87,2.16,4.7,4.61,5.46l-.75.66s-2.16-.47-4.23-4.42l-1.69-6.58a45.67,45.67,0,0,0-2.26-5.64c-1.41-2.92-4.33-7.34-6.68-7.05,0,0-3.29-1.22-4.42,2.73a35.67,35.67,0,0,1-2.26,6.11l-1,4.33-1.69,6.48-2.35,7s-1.41-10.63-1.69-14.77-.28-13.64-.28-13.64l.47-10.91.47-4.51.75-2.92s-.66-.38-.47-2.16c0,0-1.41-3.57-3.48-3.57s-3.1.38-3.48,1.79-.94,2.07,0,3.67L40,11.38l-.42,3.48v8.65l-.43,2.35V28l.56,6.49.38,7.71-.19,1.6L40.39,46l1.13,9.69,1.13,3.86s1.6,6.68,6.3,5.08c0,0,2.63-2.26,4.7-7.81a96.8,96.8,0,0,0,3-9.31l2.07-7.62L60,35.46s.94-.19,2.16,4.23,4.23,11.48,5.83,12.89S71.61,58,78.76,56.15c0,0,6.11-4.33,7.62-8.37l1.22-2.07.94-3S90,35.37,88.54,32.73Zm-6.46,6.71c-1.5,3.89-3.83,4.14-3.83,4.14-.75-.13-1.69-2-1.69-2s-.19-1.38-.44-2.51,0-2.32.56-4.58a7.56,7.56,0,0,1,2.07-3.57c1.38-.19,2.45,3.32,2.45,3.32C82.59,36.24,82.09,39.44,82.09,39.44Z"/><path d="M128.24,22.39l-3.1-5.17s-2-3.29-3.67-4.42a14.71,14.71,0,0,0-3.57-1.88,18.77,18.77,0,0,1-2.63-1.41H106.7V7.62c.38-4.33-4.51-4.14-4.51-4.14-3.67-.09-5.46,6.58-5.46,6.58h-.66l-3.1.56c-2.45.38-2.35,4.42-1.13,6S96,18.53,96,18.53s0,1.69-.47,7.34.38,21.54.56,22.86,1.32,7.71,1.32,7.71l1,4.8.66,2.07v2.54l1.6,6.21s2.07,7.9,3.86,9.41,4.8,0,4.8,0c1.6-3.2-.38-8.18-.38-8.18s-.94-4-1.22-4.42a13.25,13.25,0,0,1-.66-1.41l-.75-1.79-1.13-1.32-1.5-6.11-1.32-9.59-.47-5s7.15.16,13,0,9.69-.69,15-5.49S128.24,22.39,128.24,22.39Zm-2.73,8.52s-2.82,4.37-6.87,4.93a68.61,68.61,0,0,0-7.23,1.41s-8.57.75-9.13,0v-9l.66-8,.66-3.67s5.64-.66,7.05-.66h2.63s2.73,1,3.1,1.79a5.7,5.7,0,0,0,.94,1.32l1.79,1.88,3,2.63S126.54,28.61,125.51,30.91Z"/></g></g></svg>
