<svg height="100" width="100" xmlns="http://www.w3.org/2000/svg" viewBox="40 0 85 280"><title>Asset 3</title><g id="Layer_2" data-name="Layer 2"><g id="Layer_1-2" data-name="Layer 1"><path d="M5.92,29.55s-2.63-.63-4.14,0A2.64,2.64,0,0,0,.59,30.93a.85.85,0,0,0-.31,1.44c.13.94.38,2,.38,2s-.19,1.13.63,1.5a38.11,38.11,0,0,1,2.88,4.77L5.92,44l1.94,4.83,1.76,5.58,1.32,3.7L12.82,63s2.51,7,3,8.65,1.88,5.14,2.19,6.83.13,4.26,1.38,4.77.63.69.63.69.68.6,1.18.35l.31.82h.41l.89-.26a7.81,7.81,0,0,0,2-1,1.76,1.76,0,0,0,.72-1.36V78.87l.63-5.39.31-1.94.44-3L28,59.4s.38-3.57.5-6,.63-6.93.63-10.69V37.17s1.66-1.25,1.35-2.82a2.93,2.93,0,0,0-1.19-2.19,8.07,8.07,0,0,0-2.23-1.41,3.28,3.28,0,0,0-2.66.25,5.5,5.5,0,0,0-2.1,4.33c-.09,2.48,0,4.26,0,4.26l0,1.91v2.79l.06,2.35-.22,4.64-.5,5.24-.41,4-.25.44v.91L20.47,65l-.13,1.22s-.47.5-.56-.06S19,63,19,63l-.69-1.91-.44-1.44-1-2.76-.72-2.26-1.5-3.86L14,48.61l-.44-1.29-1.13-2.79-.5-1.91-1-2.19L9.53,36.54l-.82-2L7.52,32.37l0-.94s-.85-.72-1.29-.72-.82,0-.82,0a.44.44,0,0,1,.31-.63S6.57,29.68,5.92,29.55Z"/><path d="M38.22,24.53l-1.88-.63a2.17,2.17,0,0,1-1-1.25c-.13-.75-.5-1.44,0-2.38,0,0-.56-1.25.31-1.94a3.35,3.35,0,0,1,2.57-1.76c1.63,0,3.76,1.76,3.76,2.26a18.24,18.24,0,0,0,.56,2.45v1.38s-.75.88-.56,1.5a3.69,3.69,0,0,1-1.25.82C40.1,25.16,39,26.1,38.22,24.53Z"/><path d="M42.54,29.27S41,28.12,40.38,28.22a4.52,4.52,0,0,0-1.22.52c-.38.13-1.32-.62-1.5.32s-.75,1.36-.28,2.45a4.63,4.63,0,0,1,.47,1.6l.24,1.5.14,2.16.24,4.8,0,4.14v2.07l0,.71.36.66-.45.24,0,1.18.09,1.27v5.35l-.09,2-.09,1v.94l-.38,1.22V65l-.14,1.74,0,1.6-.28.75-.09,3.15v1.32l0,.71-.23,1.08v1.6l-.19.94.38.61.47.94,1.22.66,1.22.61s1.32,1,2.26.33S44,80,44,80l.33-.94V74.64s.33-.89,0-1.36l0-1.6.19-5.27.28-5.17V57.94l.38-7.15V37.58a13.34,13.34,0,0,0-.38-4c-.33-.61-.52-2.79-1.36-3.57l.24-.28Z"/><path d="M138.61,45.16s-1.63,1.32-2.07.88a8.83,8.83,0,0,1,.5-2.7l.56-1.94a15.72,15.72,0,0,0,.5-4.89c0-3.57,0-10-4.83-14.11,0,0-3.76-3.83-9.72,1.07,0,0-3.7,3.76-4.45,5.89s-1.69,4.26-1.69,4.26l-1,2.95-.25.38.19,1a21.64,21.64,0,0,0-.25,8.15s-5.83,6.9-8.53,8.84-8,6-12.35,6.08c0,0-5.33-.38-6.58-5.64A24.28,24.28,0,0,1,88.69,43s2.51,2.32,4.2,1.88l1.69-.44s1.32-.82,2.07-1.25a15.23,15.23,0,0,0,5.2-6.08,19.7,19.7,0,0,0,1.94-5.2c.19-1.32,1.13-6.27-1.94-7.84s-5.46-2.26-7.4-1.63-7,2.45-10.47,10.66c0,0-2.45,7-2.51,12.1s-.19,7.4.94,10.85c0,0,0,1.63-.44,2a5.4,5.4,0,0,0-.88,1.69l-.82.69-1.13,1.76s-1.25-4-1.76-6.65-.94-7-.94-7l-.38-6,.06-6.33.38-6.77,1-8.4.38-9.16L78.1,7l.06-.75.13-2.7V2.84L77,1.46A4.92,4.92,0,0,0,73.91,0a2.53,2.53,0,0,0-2,.89,6.07,6.07,0,0,0-.8,1.79V6.11L70.81,7V9l-.33.66v6.58l-.28,1.79V21.3L69.91,23l-.24,3.62v2.49A24.62,24.62,0,0,1,68.55,34c-.66,1.41-.8,1.83-1.65,1.41s-2.4-1.79-4.28-1.74-3.86-.14-5.27.52-4.84,2.63-7.15,8.28a25.44,25.44,0,0,0-1.41,5.08c-.38,2.54-2.26,8.42,3.1,11,0,0,6.16,2.52,11-1.37,0,0,4-2.58,5.74-5.92l1.18-1.83.24,1s.75,7.16,1.22,8.89,1.88,7.85,5,9.68c0,0,4.51,2.73,7-.28l2.3-3.57.61-.89v-.42l.52-.61,2.73,1.83s7.9,4.22,14.55-.17c0,0,7.27-5.27,10.1-8.59a28.66,28.66,0,0,0,2.95-3.7l.25-.5s.75-.56.88-.13a6.52,6.52,0,0,0,1.07,1.44s2.88,3.76,9,3c0,0,5.33-.88,11-6.71a12.3,12.3,0,0,1,1.07-2.95S139.3,45.16,138.61,45.16ZM90,36.64l.88-2.26,1.19-2.07,1.25-1c1.88-2.76,3.7-2.38,3.7-2.38.6,0,.25.63,0,1.57A3.7,3.7,0,0,1,96,32.12c-.56,0-.31,1.11-.31,1.11l-.44.9a3.7,3.7,0,0,1-1,1.38,4.12,4.12,0,0,0-1.06,1.44c-1.07.94-1.76.5-2.7.5S90,36.64,90,36.64ZM63.74,44.29v1.57a31.38,31.38,0,0,1-2.38,3.32,11.3,11.3,0,0,1-5.71,3.51c-.69,0-.5-1.76.44-5a13.94,13.94,0,0,1,3.51-6.21,3.78,3.78,0,0,1,3.45-1s.75,1.07,1.13,1.63S63.74,44.29,63.74,44.29Zm68-9.2a33.66,33.66,0,0,1-.56,4l-.38,1.16v1.07l-.44,1.38-.38,1v.63L129,45.35l-.38,1.13L128,47.67v2l-1.63.94-.63-.38-.88.38c-2.26.13-2.76-3.51-2.76-3.51V42.28a27.48,27.48,0,0,1,.44-2.82s.82-2.76,1.44-4.37a26.83,26.83,0,0,1,3.57-5.85A10.12,10.12,0,0,1,130,27.48h.38a24.81,24.81,0,0,0,.94,3.14A12.81,12.81,0,0,1,131.77,35.09Z"/><path d="M167.12,15.94s.61-2.63-.85-3.67l-1.79-1.18-.61-.38-1.88.61-3.62,1.36-1.41.42-2.49.89-4.37,1.93-2.68,1.36S143.14,19.89,143,23c0,0-.24,4,2.16,5.93a6.48,6.48,0,0,0,2.4,2.35l4.19,2.87,3.35,1.6,2.62,1.41,1.32.56,1.83.75,1.79,1,1.27.47,2.16,1L168,42l2.68,1.6,1.36,1,1,.71,2.26,2.3a3.58,3.58,0,0,1-.71,1.6c-.52.52-1.6,1.83-1.6,1.83l-2,1.46-2.73,1.46a16.14,16.14,0,0,1-3.9,1.6A38.3,38.3,0,0,1,157.11,57,26.09,26.09,0,0,1,154,57l-.28,1,.28.85-.19.52a3.4,3.4,0,0,0,2,2.26c1.74.85,3.1,2.49,8.28,1.08s8.18-2,12.7-5.27c0,0,4.8-3.57,5.31-6.07s1.32-3.76-2.3-8A15.41,15.41,0,0,0,175.35,40c-3-1.55-10.44-5.55-10.44-5.55l-4.75-2.26-5.74-3.1s-4.84-2.92-4.56-4.23c0,0,1.27-2.82,6.16-4.28s6-1.88,6-1.88l2.68-.89S166.7,17.12,167.12,15.94Z"/></g></g></svg>
